<svg t="1737962744115" class="icon" viewBox="0 0 1024 1024" version="1.1" xmlns="http://www.w3.org/2000/svg" p-id="14753" width="32" height="32"><path d="M725.568 482.176A222.336 222.336 0 0 0 768 352C768 228.48 667.52 128 544 128H256a64 64 0 0 0-64 64v640a64 64 0 0 0 64 64h352c123.52 0 224-100.48 224-224a223.488 223.488 0 0 0-106.432-189.824zM320 256h224c52.928 0 96 43.072 96 96S596.928 448 544 448H320V256z m288 512H320V576h288c52.928 0 96 43.072 96 96S660.928 768 608 768z" p-id="14754"></path></svg>